#!OML:ASF F:\VICON\USERDATA\INSTALL\rory3\rory3.ASF
:FULLY-SPECIFIED
:DEGREES
27
root 0.9159720146365291 18.04922101933689 0.1667904776840352 -3.7597117418825565 -2.463741220636849 1.985223396571318
lfemur -3.2301875319088813 -2.3942867627807725 -26.66710955975603
ltibia 29.30112022039264
lfoot -13.614117104384842 3.805784389117865
ltoes 0.7870325211585816
rfemur -25.626349860629578 0.3111462310290687 21.17483736540472
rtibia 69.4406304052956
rfoot -6.690808831762332 -5.243805659470655
rtoes 6.341480482555632
lowerback 10.766385200824775 0.5847138740397365 -1.8738575222980842
upperback 0.631179336573432 0.557703161001132 0.47493199720989043
thorax -5.261841630775077 0.3284671453785449 1.7676248103459975
lowerneck -16.04621147744325 -2.6961969651484314 -1.7457057358871975
upperneck 21.877604252030256 -3.355657944716995 0.37175661730269727
head 9.655735448406608 -1.6844009135272275 0.012286063482482415
lclavicle -6.88890901093129e-16 2.070822488101284e-15
lhumerus -29.91349821491625 0.7043068416553924 83.0650249256796
lradius 24.744372341560997
lwrist 4.453257006945537
lhand -26.440197884146734 24.074751897240883
lfingers 7.12502
lthumb 0.12067246481563554 54.0566635884572
rclavicle -6.88890901093129e-16 2.070822488101284e-15
rhumerus -28.3924624765213 -18.146920075454943 -79.5511049245695
rradius 24.737670712830926
rwrist 6.236001449069237
rhand -16.653384220386236 22.50307136311379
rfingers 7.12502
rthumb 9.569793789049193 -7.260963810986744
28
root 0.8857366713578241 18.01620750895559 -0.5369371156900922 -3.4592258372075912 -1.8889465906832141 2.4702958163391124
lfemur -0.7962769665986897 -2.3942628582767362 -27.82410635996255
ltibia 26.93032927722517
lfoot -14.9783093262714 4.057074554766782
ltoes 1.1106977579519977
rfemur -29.15989051735201 0.32513429467743205 20.43634088160192
rtibia 61.99605224677715
rfoot -8.31106272120482 -6.190851393614155
rtoes 2.4714678504102965
lowerback 10.684822508453363 0.16632363278230566 -2.817917562267593
upperback 0.62604041198507 -0.11015624078004871 0.5099762176671965
thorax -5.220119417743162 0.022406518587975488 2.266682078190054
lowerneck -16.186482840641148 -2.7373501940955154 -1.9061974895923053
upperneck 21.74270950191619 -3.4070203128106296 0.41732637495320013
head 9.617853498077654 -1.7039760413998501 0.040840130534416014
lclavicle -1.1801136398923902e-15 1.6189959084744878e-15
lhumerus -28.306211398204702 -1.6479627336544855 83.19569565859419
lradius 26.338864538505646
lwrist 5.036832261412584
lhand -26.706303877209283 24.28924863349049
lfingers 7.12502
lthumb -0.1363592936539213 54.26916299220064
rclavicle -1.1801136398923902e-15 1.6189959084744878e-15
rhumerus -28.9821622908287 -17.669147902752673 -79.69439092362943
rradius 24.971312094866523
rwrist 5.221092754611722
rhand -16.6551132683364 22.154744295521233
rfingers 7.12502
rthumb 9.568093857059422 -7.608030282214727
29
root 0.8437997029970299 17.998245346334212 0.6041409056749636 -2.9427200749941385 -1.3213158765814719 2.877378928339865
lfemur 1.8018537025742773 -2.376788910861569 -28.169473813549224
ltibia 24.314228935359623
lfoot -15.280750446947152 4.192842219996442
ltoes 1.7865276256200215
rfemur -30.377267158211872 0.7884845573453085 19.840282834045162
rtibia 53.317839885835085
rfoot -7.986627046781059 -8.293340244078891
rtoes -0.07417542140547573
lowerback 10.542197330838471 -0.09873977338374051 -3.3258504379027842
upperback 0.6084534013896455 -0.5118093841047067 0.6307242178546162
thorax -5.135930303962804 -0.16727006797821353 2.737206522232667
lowerneck -16.362348117914433 -2.754413711171313 -2.0180292806613114
upperneck 21.627864867167578 -3.426819455174002 0.507982125431494
head 9.6068247880047 -1.7093347395920233 0.08874258654576234
lclavicle -9.741224116950322e-16 1.8089522870856992e-15
lhumerus -26.7311835836955 -3.2078650240897417 83.2132649003016
lradius 27.91357093874014
lwrist 5.977160134128407
lhand -26.338711002699963 25.62953271015907
lfingers 7.12502
lthumb 0.2185857517604699 55.60837228075328
rclavicle -9.741224116950322e-16 1.8089522870856992e-15
rhumerus -29.337396136278066 -17.441019901343726 -79.560085325908
rradius 25.206934350705986
rwrist 4.895226112108922
rhand -16.683115922101532 22.48695963243628
rfingers 7.12502
rthumb 9.541072484614606 -7.277490328047532
30
root 0.7949270942653799 17.967518394217542 1.064800811191006 -2.315712153055504 -0.6764570263447207 3.3308076079281137
lfemur 5.339957634579202 -2.2785082580938925 -28.74806679040337
ltibia 19.907823671014405
lfoot -15.470574692641048 3.486204478417955
ltoes 0.8257191606782324
rfemur -31.26648511944397 2.2842008708812873 18.456115501669444
rtibia 40.71888013860158
rfoot -6.855133833206013 -11.34069684197674
rtoes -2.1745909333059683
lowerback 10.143339651948754 -0.4393339654541014 -4.181838482169051
upperback 0.5119999402858452 -1.0502048949208453 0.6516779130734256
thorax -4.988414752140331 -0.41526038026667134 3.1916771478659904
lowerneck -16.516955178255092 -2.771656709611078 -2.0532116877151485
upperneck 21.510915108763776 -3.4540706375675962 0.5440519463761618
head 9.590347610601833 -1.7172686822006502 0.10406132116657218
lclavicle -1.2995672806267033e-15 1.5094513499928338e-15
lhumerus -25.080416301027846 -4.68379971336128 83.01166022473983
lradius 29.311755078387474
lwrist 6.831440702351999
lhand -26.46303920884531 26.593339466459202
lfingers 7.12502
lthumb 0.09846580070966149 56.567840980947395
rclavicle -1.2995672806267035e-15 1.5094513499928338e-15
rhumerus -29.93468743685737 -17.71490897116948 -79.36378018991529
rradius 25.026457288271107
rwrist 4.798612757642
rhand -16.601763488494615 22.81062662911533
rfingers 7.12502
rthumb 9.619557845250554 -6.9487382925482395
31
root 0.745363773473323 17.940674311055883 2.517351771020527 -1.6110432580541705 0.1623200471716424 3.79194480200928
lfemur 9.316190355766167 -2.02269853139641 -28.722545408205278
ltibia 15.774846705862396
lfoot -15.001340311768445 2.5825706307319525
ltoes -0.18030818356932343
rfemur -30.473080206983774 4.642720721379071 16.66215435111812
rtibia 28.372124042200817
rfoot -5.95784923334678 -14.713387095700778
rtoes -3.257016307268153
lowerback 9.708364362559577 -0.7609294477718166 -4.7451182461243375
upperback 0.40246942771744165 -1.522843378777718 0.7441218426841755
thorax -4.81963317222812 -0.6392919136772337 3.6913418999500167
lowerneck -16.571554393527226 -2.767941227061098 -2.0358518888220036
upperneck 21.47591749851971 -3.4546453192896567 0.5734459958054565
head 9.596436334199883 -1.714480319439831 0.1200148686471036
lclavicle -1.0573706334592657e-15 1.7324169526765349e-15
lhumerus -23.253750770471097 -5.459250061956248 82.76670397760226
lradius 30.464539102097355
lwrist 7.435236962384926
lhand -26.823931440231384 27.460626227366667
lfingers 7.12502
lthumb -0.25013949125970025 57.428896357980605
rclavicle -1.0573706334592657e-15 1.7324169526765349e-15
rhumerus -30.35811918315135 -18.56200099919827 -78.77310186097873
rradius 24.533004480139958
rwrist 5.489062223374111
rhand -16.743513970470804 23.466244640484426
rfingers 7.12502
rthumb 9.48275223000341 -6.298681502264699
32
root 0.6646174554180466 17.886744910167938 3.991814566705293 -1.0643595324324941 0.8846994486464075 3.985175665933848
lfemur 12.548477818713874 -1.9825227266347356 -28.482388523424504
ltibia 12.29726449775331
lfoot -15.000182517865738 1.6309388688894233
ltoes -2.009738320041716
rfemur -28.921525907809876 6.840257230122312 15.108267136857096
rtibia 18.021379109370297
rfoot -6.189704121731374 -17.013857530977717
rtoes -5.086413552663759
lowerback 9.354309311364592 -1.000473568139069 -5.098370071139964
upperback 0.2831050021805685 -1.861610746013267 0.8344541017932785
thorax -4.691709295641958 -0.8010907040133919 4.020400903199312
lowerneck -16.66831921320777 -2.787694120778952 -2.0512430655174496
upperneck 21.417112856219067 -3.4919337042325767 0.6485325472483685
head 9.595263552531208 -1.7246231841716122 0.14184775244591935
lclavicle -1.00566515782736e-15 1.7795665395877544e-15
lhumerus -22.032042398947052 -5.873225701690287 82.46909787435017
lradius 31.534646424368255
lwrist 7.879583019956046
lhand -27.19458386857649 27.422258157825112
lfingers 7.12502
lthumb -0.6081284509627908 57.38648646449245
rclavicle -1.0056651578273602e-15 1.7795665395877544e-15
rhumerus -30.76460706145533 -19.856154417924408 -78.07956714536522
rradius 23.790173322926634
rwrist 6.516069812384953
rhand -17.017852349604194 23.282679379193876
rfingers 7.12502
rthumb 9.218013799994083 -6.494078832446208
33
root 0.5940759366254377 17.832368916577515 5.1072144921951175 -0.801968885078989 1.5037245565032626 3.987032606317403
lfemur 15.068671588050314 -2.4351572511060082 -28.07354007456334
ltibia 11.66434492024619
lfoot -14.511925813819083 0.7184672933160443
ltoes -4.22677474239773
rfemur -27.514256255351132 7.761384166710339 14.764157029077694
rtibia 13.494420316197989
rfoot -6.649807794532666 -16.3183131735292
rtoes -6.389534281681149
lowerback 9.204599967191475 -1.1362907188806965 -5.218024403785756
upperback 0.23427395138054255 -2.0422056701958438 0.9749708862396317
thorax -4.615749089386213 -0.888538433538965 4.282241201052839
lowerneck -16.796674210903817 -2.8064268485815598 -2.0586183049010085
upperneck 21.363483741227267 -3.5183100979527167 0.6695374125753548
head 9.595471192348024 -1.7332077036744937 0.14260928100097575
lclavicle -8.309154656921826e-16 1.9399519384011998e-15
lhumerus -21.36046558934376 -5.878750319210972 82.35525771202546
lradius 32.40575509067006
lwrist 8.192078695835376
lhand -27.51168728481765 26.855957443917486
lfingers 7.12502
lthumb -0.9143516276196364 56.81836183752925
rclavicle -8.309154656921826e-16 1.9399519384011998e-15
rhumerus -31.206338955436284 -21.370750304262224 -77.20243633841376
rradius 22.993557422542995
rwrist 7.816587195906135
rhand -17.375372400174918 22.679446934329423
rfingers 7.12502
rthumb 8.873013414780214 -7.1130162561994394
